<?xml version="1.0" standalone="no"?>
<!DOCTYPE svg PUBLIC "-//W3C//DTD SVG 20010904//EN"
 "http://www.w3.org/TR/2001/REC-SVG-20010904/DTD/svg10.dtd">
<svg version="1.0" xmlns="http://www.w3.org/2000/svg"
 width="88.000000pt" height="84.000000pt" viewBox="0 0 88.000000 84.000000"
 preserveAspectRatio="xMidYMid meet">

<g transform="translate(0.000000,84.000000) scale(0.100000,-0.100000)"
fill="#000000" stroke="none">
<path d="M374 736 c-41 -18 -73 -61 -80 -108 -6 -36 -9 -38 -43 -38 -45 0 -66
-13 -57 -35 4 -11 12 -15 24 -10 9 3 30 9 47 12 l30 6 -38 -33 c-34 -29 -36
-35 -23 -48 13 -13 18 -11 42 17 l27 32 31 -30 c17 -16 43 -33 58 -36 18 -5
25 -12 21 -21 -3 -8 -1 -20 4 -27 7 -8 7 -25 1 -47 l-10 -35 -29 58 c-16 31
-33 57 -37 57 -17 0 -63 -50 -77 -83 -27 -65 -21 -83 33 -104 71 -27 221 -25
284 4 46 21 47 23 42 55 -4 18 -17 50 -30 71 -22 34 -22 41 -1 38 4 0 7 5 7
12 0 7 13 28 30 47 16 19 29 38 30 43 1 17 -23 5 -51 -28 -17 -19 -35 -32 -40
-29 -5 3 -9 -4 -9 -16 0 -16 -5 -20 -18 -16 -14 5 -24 -6 -45 -50 -16 -31 -31
-53 -35 -50 -3 4 -6 31 -7 61 0 41 3 55 14 55 25 0 81 41 96 70 8 16 15 50 15
76 0 104 -108 172 -206 130z m164 -124 c5 -53 -10 -62 -102 -62 -50 0 -87 5
-94 12 -13 13 -16 70 -5 82 4 4 50 5 103 4 l95 -3 3 -33z"/>
<path d="M377 624 c-15 -15 -7 -45 11 -42 9 2 17 12 17 22 0 20 -16 31 -28 20z"/>
<path d="M466 614 c-7 -19 1 -34 19 -34 18 0 26 25 12 39 -15 15 -24 14 -31
-5z"/>
<path d="M237 203 c-15 -15 -5 -41 20 -52 27 -13 23 -25 -12 -34 -13 -3 -9 -5
13 -6 27 -1 32 2 32 22 0 16 -9 28 -26 35 -28 13 -23 37 7 29 11 -3 19 -1 19
4 0 10 -43 12 -53 2z"/>
<path d="M327 203 c-15 -15 -5 -41 20 -52 27 -13 23 -25 -12 -34 -13 -3 -10
-5 11 -6 20 -1 34 5 38 14 5 15 -18 45 -35 45 -5 0 -9 7 -9 16 0 11 6 15 20
11 11 -3 20 -1 20 4 0 10 -43 12 -53 2z"/>
<path d="M415 198 c-3 -9 -5 -31 -3 -50 2 -27 7 -33 28 -35 14 -1 18 0 8 3
-21 6 -25 54 -5 54 8 0 9 3 1 8 -6 4 -13 14 -16 22 -5 13 -7 13 -13 -2z"/>
<path d="M630 158 c0 -43 2 -48 23 -48 20 1 20 2 5 11 -10 5 -18 19 -18 29 0
12 7 20 18 21 13 0 14 2 2 6 -8 3 -18 11 -22 17 -4 6 -8 -10 -8 -36z"/>
<path d="M498 173 c12 -2 22 -8 22 -13 0 -5 -10 -10 -22 -12 -33 -4 -29 -32 5
-36 25 -3 27 -1 27 32 0 33 -2 36 -27 35 -24 -2 -25 -2 -5 -6z m22 -43 c0 -5
-7 -10 -15 -10 -8 0 -15 5 -15 10 0 6 7 10 15 10 8 0 15 -4 15 -10z"/>
<path d="M560 145 c0 -19 5 -35 10 -35 6 0 10 13 10 29 0 20 6 31 18 34 10 3
6 5 -10 6 -25 1 -28 -2 -28 -34z"/>
</g>
</svg>
